<?xml version="1.0" encoding="UTF-8" standalone="no"?>
<svg
   viewBox="0 0 22 22"
   aria-label="Verified account"
   role="img"
   class="r-4qtqp9 r-yyyyoo r-1xvli5t r-bnwqim r-lrvibr r-m6rgpd r-f9ja8p r-og9te1"
   data-testid="icon-verified"
   version="1.1"
   id="svg11"
   sodipodi:docname="aa4d4156-9797-44ef-afa2-4f0e8dc1a86d.svg"
   xmlns:inkscape="http://www.inkscape.org/namespaces/inkscape"
   xmlns:sodipodi="http://sodipodi.sourceforge.net/DTD/sodipodi-0.dtd"
   xmlns="http://www.w3.org/2000/svg"
   xmlns:svg="http://www.w3.org/2000/svg">
  <defs
     id="defs11" />
  <sodipodi:namedview
     id="namedview11"
     pagecolor="#ffffff"
     bordercolor="#000000"
     borderopacity="0.25"
     inkscape:showpageshadow="2"
     inkscape:pageopacity="0.0"
     inkscape:pagecheckerboard="0"
     inkscape:deskcolor="#d1d1d1" />
  <g
     id="g11">
    <linearGradient
       gradientUnits="userSpaceOnUse"
       id="44-a"
       x1="4.411"
       x2="18.083"
       y1="2.495"
       y2="21.508">
      <stop
         offset="0"
         stop-color="#f4e72a"
         id="stop1" />
      <stop
         offset=".539"
         stop-color="#cd8105"
         id="stop2" />
      <stop
         offset=".68"
         stop-color="#cb7b00"
         id="stop3" />
      <stop
         offset="1"
         stop-color="#f4ec26"
         id="stop4" />
      <stop
         offset="1"
         stop-color="#f4e72a"
         id="stop5" />
    </linearGradient>
    <linearGradient
       gradientUnits="userSpaceOnUse"
       id="44-b"
       x1="5.355"
       x2="16.361"
       y1="3.395"
       y2="19.133">
      <stop
         offset="0"
         stop-color="#f9e87f"
         id="stop6" />
      <stop
         offset=".406"
         stop-color="#e2b719"
         id="stop7" />
      <stop
         offset=".989"
         stop-color="#e2b719"
         id="stop8" />
    </linearGradient>
    <g
       clip-rule="evenodd"
       fill-rule="evenodd"
       id="g10">
      <path
         d="M13.324 3.848L11 1.6 8.676 3.848l-3.201-.453-.559 3.184L2.06 8.095 3.48 11l-1.42 2.904 2.856 1.516.559 3.184 3.201-.452L11 20.4l2.324-2.248 3.201.452.559-3.184 2.856-1.516L18.52 11l1.42-2.905-2.856-1.516-.559-3.184zm-7.09 7.575l3.428 3.428 5.683-6.206-1.347-1.247-4.4 4.795-2.072-2.072z"
         fill="url(#44-a)"
         id="path8" />
      <path
         d="M13.101 4.533L11 2.5 8.899 4.533l-2.895-.41-.505 2.88-2.583 1.37L4.2 11l-1.284 2.627 2.583 1.37.505 2.88 2.895-.41L11 19.5l2.101-2.033 2.895.41.505-2.88 2.583-1.37L17.8 11l1.284-2.627-2.583-1.37-.505-2.88zm-6.868 6.89l3.429 3.428 5.683-6.206-1.347-1.247-4.4 4.795-2.072-2.072z"
         fill="url(#44-b)"
         id="path9" />
      <path
         d="M6.233 11.423l3.429 3.428 5.65-6.17.038-.033-.005 1.398-5.683 6.206-3.429-3.429-.003-1.405.005.003z"
         fill="#d18800"
         id="path10" />
    </g>
  </g>
</svg>
