<?xml version="1.0" encoding="UTF-8"?>
<svg version="1.1" xmlns="http://www.w3.org/2000/svg" width="500" height="500">
<path d="M0 0 C0.82502518 0.00719055 1.65005035 0.0143811 2.50007629 0.02178955 C3.80261604 0.02135147 3.80261604 0.02135147 5.13146973 0.02090454 C8.01013582 0.02230116 10.8885451 0.03787791 13.76716614 0.05352783 C15.75970824 0.05725678 17.75225217 0.06010431 19.74479675 0.06210327 C24.99573303 0.06974901 30.24655912 0.08940556 35.49745178 0.11151123 C40.8529664 0.13194942 46.20849878 0.14110065 51.56404114 0.15118408 C62.07711045 0.17265058 72.59009789 0.20679784 83.10310364 0.24884033 C84.36520366 4.40470966 83.52727137 6.63989648 82.01325989 10.72930908 C81.78988449 11.34276688 81.56650909 11.95622467 81.33636475 12.58827209 C80.62286101 14.54150782 79.89472644 16.48888771 79.16560364 18.43634033 C78.44327771 20.39556845 77.72393879 22.35586728 77.0055542 24.31654358 C76.35433664 26.08902881 75.69580475 27.85882156 75.03694153 29.628479 C74.04715415 31.94220394 74.04715415 31.94220394 74.10310364 33.24884033 C75.42531921 33.26285889 75.42531921 33.26285889 76.77424622 33.27716064 C80.09790969 33.32161854 83.42036898 33.38342351 86.7434845 33.45635986 C88.1717535 33.48429274 89.60016914 33.50564248 91.02864075 33.51983643 C104.81022235 33.66485482 116.86326656 36.23743438 127.07575989 46.16680908 C135.2425193 55.13117133 138.84026642 64.42357528 139.20466614 76.65899658 C138.6504475 87.73017359 135.44464104 96.91663764 128.10310364 105.24884033 C127.5784552 105.86630127 127.05380676 106.48376221 126.51325989 107.11993408 C118.55379447 115.82852566 108.41345132 118.79838076 96.88017273 119.42353821 C93.36552335 119.47846311 89.85632892 119.47409186 86.34138489 119.44415283 C85.0695787 119.44132294 83.79777252 119.43849304 82.48742676 119.43557739 C79.14522857 119.42635016 75.80331651 119.40845759 72.4611969 119.38616943 C69.03521667 119.36552053 65.6092066 119.35653543 62.18318176 119.34649658 C55.48974503 119.32455859 48.79644081 119.29117376 42.10310364 119.24884033 C41.92302261 119.86652786 41.74294159 120.48421539 41.55740356 121.12062073 C39.85446694 126.88933098 37.99791154 132.57155246 35.95857239 138.22930908 C35.66630264 139.04523026 35.3740329 139.86115143 35.07290649 140.70179749 C34.45820031 142.41561278 33.84219389 144.12896223 33.22492981 145.84185791 C32.29949141 148.41166032 31.3797262 150.98344177 30.46052551 153.55548096 C15.92662151 194.08770776 15.92662151 194.08770776 1.54060364 201.99884033 C-11.59916478 207.97326676 -24.47398136 208.2704214 -38.14689636 203.74884033 C-48.34238662 199.14387723 -55.77743011 190.49145879 -59.89689636 180.24884033 C-64.68188847 166.16781394 -62.64413184 155.95951816 -57.89689636 142.24884033 C-57.24654346 140.32977724 -56.59684355 138.41049277 -55.94767761 136.49102783 C-51.70686156 124.03417994 -47.24318644 111.66494027 -42.68742371 99.32037354 C-37.8446594 86.17921618 -33.12117273 72.99546894 -28.39689636 59.81134033 C-27.98450714 58.66139587 -27.57211792 57.51145142 -27.14723206 56.32666016 C-23.16913962 45.23265969 -19.19634481 34.13721514 -15.29924011 23.01446533 C-14.90661484 21.89641762 -14.90661484 21.89641762 -14.50605774 20.75578308 C-13.33614209 17.42396227 -12.17131084 14.09059292 -11.01799011 10.75299072 C-10.62611511 9.63400391 -10.23424011 8.51501709 -9.83049011 7.36212158 C-9.50105408 6.41119629 -9.17161804 5.460271 -8.8321991 4.48052979 C-6.89608066 -0.13916706 -4.68109119 0.01712308 0 0 Z " fill="#EBB22C" transform="translate(290.8968963623047,236.75115966796875)"/>
<path d="M0 0 C1.05047181 4.47115359 0.68664011 6.82430349 -0.90258789 11.17285156 C-1.34377457 12.39893127 -1.78496124 13.62501099 -2.23951721 14.88824463 C-2.73367092 16.22245513 -3.22805685 17.55657965 -3.72265625 18.890625 C-4.22648052 20.27724861 -4.72918255 21.66428044 -5.2308197 23.05169678 C-6.55752312 26.71196095 -7.89887979 30.366683 -9.24353027 34.02038574 C-10.5867359 37.67721252 -11.91712458 41.3386886 -13.24804688 45 C-14.75701488 49.14971811 -16.26699355 53.29902124 -17.78785706 57.44439697 C-21.26780567 66.9388591 -24.63375745 76.46231276 -28 86 C-55.225 86.495 -55.225 86.495 -83 87 C-84.98 92.3625 -86.96 97.725 -89 103.25 C-91.32359855 109.50366415 -93.65888268 115.75287669 -96 122 C-96.42506836 123.13630859 -96.85013672 124.27261719 -97.28808594 125.44335938 C-103.14481474 140.98918833 -108.64668957 154.68166745 -124.4375 162.3125 C-137.02189812 167.42080098 -148.5540898 166.68023171 -161.1953125 162.2265625 C-171.78306275 157.55423547 -179.47395588 148.47561821 -183.75 137.9375 C-189.82789021 120.3219199 -182.12943143 102.50860199 -176 86 C-176.72703125 85.98582031 -177.4540625 85.97164063 -178.203125 85.95703125 C-191.42382932 85.32989528 -201.04452996 80.76960368 -210 71 C-216.71347167 62.767836 -219.57599134 54.20227647 -219.4375 43.625 C-219.42847656 42.79355469 -219.41945312 41.96210938 -219.41015625 41.10546875 C-219.08248435 29.43670832 -214.80282636 20.68030683 -207 12 C-195.85967463 1.89118624 -183.04772832 0.40187483 -168.59326172 0.45410156 C-166.97538773 0.44534742 -165.35752237 0.43485529 -163.7396698 0.42277527 C-159.37767086 0.39507836 -155.01595657 0.39150747 -150.6538825 0.39249516 C-146.06184548 0.38934273 -141.46993211 0.3636642 -136.87796021 0.34051514 C-128.17685235 0.30003793 -119.47581906 0.27964214 -110.77463162 0.26654124 C-100.93690765 0.25073906 -91.09931432 0.21226239 -81.26166511 0.17194796 C-65.90217532 0.10954393 -50.54269032 0.05969739 -35.18310547 0.02832031 C-34.43162546 0.0267436 -33.68014545 0.02516689 -32.90589333 0.0235424 C-21.93725458 0.00104958 -10.96865974 -0.00327617 0 0 Z " fill="#EBB22C" transform="translate(251,270)"/>
<path d="M0 0 C9.51859959 8.37385862 14.3968995 18.45180963 16.18359375 30.87890625 C16.76246906 40.78008596 14.17543981 50.03676484 10.37109375 59.0859375 C10.94964111 59.12557617 11.52818848 59.16521484 12.12426758 59.20605469 C37.83446215 61.05802771 37.83446215 61.05802771 48.37109375 69.0859375 C49.17546875 69.6221875 49.97984375 70.1584375 50.80859375 70.7109375 C56.90611245 76.3622963 60.92317435 83.19819723 63.37109375 91.0859375 C63.64373047 91.93865234 63.64373047 91.93865234 63.921875 92.80859375 C66.38301942 105.28552588 64.25180507 116.99717993 57.68359375 127.7734375 C50.85291894 137.29550039 41.87082547 143.61700645 30.19225979 145.63530636 C26.18866362 146.10745153 22.26363918 146.22231964 18.24024963 146.20619202 C17.05521509 146.20747365 17.05521509 146.20747365 15.84624046 146.20878118 C13.21460881 146.21042057 10.58304174 146.20493998 7.95141602 146.19946289 C6.05878196 146.19918066 4.16614779 146.19933945 2.27351379 146.1999054 C-2.85401696 146.20019197 -7.98152425 146.19431782 -13.10904956 146.18733144 C-18.47154798 146.18107464 -23.83404695 146.18049226 -29.19654846 146.17930603 C-39.34653675 146.17619958 -49.49651425 146.16799543 -59.64649779 146.15795654 C-71.20387529 146.14677411 -82.7612533 146.14127958 -94.31863487 146.13626111 C-118.08873131 146.12581225 -141.85881817 146.10822608 -165.62890625 146.0859375 C-166.62890625 144.0859375 -166.62890625 144.0859375 -166.19125366 142.33460999 C-165.92624054 141.62743332 -165.66122742 140.92025665 -165.38818359 140.19165039 C-165.08926712 139.38262268 -164.79035065 138.57359497 -164.4823761 137.74005127 C-164.14659042 136.85517029 -163.81080475 135.97028931 -163.46484375 135.05859375 C-163.12096115 134.13415466 -162.77707855 133.20971558 -162.42277527 132.25726318 C-161.29037584 129.21823496 -160.14728456 126.18335032 -159.00390625 123.1484375 C-158.22449514 121.06430186 -157.44577171 118.97990891 -156.66772461 116.89526367 C-155.08861937 112.66654927 -153.50569953 108.43929023 -151.92041016 104.21289062 C-149.81751939 98.59975348 -147.73956302 92.97774713 -145.671875 87.3515625 C-145.07446119 85.72905594 -144.47697016 84.10657782 -143.87939453 82.48413086 C-143.04020867 80.20566841 -142.20184321 77.9269281 -141.36663818 75.64700317 C-140.60484111 73.56929296 -139.83819199 71.49343722 -139.0703125 69.41796875 C-138.64435791 68.26014893 -138.21840332 67.1023291 -137.77954102 65.90942383 C-136.62890625 63.0859375 -136.62890625 63.0859375 -134.62890625 60.0859375 C-132.37631226 59.72517395 -132.37631226 59.72517395 -129.53662109 59.74536133 C-128.4756723 59.74558792 -127.41472351 59.74581451 -126.32162476 59.74604797 C-124.59814316 59.76927376 -124.59814316 59.76927376 -122.83984375 59.79296875 C-121.07950302 59.79933601 -121.07950302 59.79933601 -119.28359985 59.80583191 C-115.52347171 59.82266774 -111.76387328 59.86032973 -108.00390625 59.8984375 C-105.45964314 59.91347796 -102.91537165 59.92716747 -100.37109375 59.93945312 C-94.1235162 59.97258733 -87.87624906 60.02283544 -81.62890625 60.0859375 C-81.34858803 59.02284615 -81.34858803 59.02284615 -81.06260681 57.9382782 C-79.59295231 52.44432476 -78.02227176 47.07146996 -76.0703125 41.73046875 C-75.83988754 41.09912521 -75.60946259 40.46778168 -75.37205505 39.81730652 C-74.89114211 38.50344159 -74.40799332 37.19039288 -73.92260742 35.87817383 C-73.18949511 33.89326307 -72.46641321 31.90489278 -71.74414062 29.91601562 C-66.01104283 14.24188698 -59.11157488 1.61621715 -43.5078125 -5.94140625 C-29.10248548 -11.35900757 -12.30792293 -8.96119203 0 0 Z " fill="#89D2DE" transform="translate(403.62890625,72.9140625)"/>
<path d="M0 0 C7.64849207 5.90675626 12.892886 15.35531679 14.74609375 24.8359375 C15.6491318 32.53260028 15.52813293 39.20482191 12.96875 46.5859375 C12.74976547 47.22131943 12.53078094 47.85670135 12.30516052 48.51133728 C9.03370512 57.91243765 5.5330924 67.23368977 2.0625 76.5625 C1.3024549 78.61122447 0.54269386 80.66005433 -0.21679688 82.70898438 C-1.37207277 85.82548934 -2.52753572 88.94192354 -3.68392944 92.05801392 C-6.85901708 100.61380778 -10.01727102 109.1757132 -13.168396 117.74035645 C-14.56278543 121.52920675 -15.95932303 125.31726535 -17.35546875 129.10546875 C-19.31952834 134.43486273 -21.28152817 139.76500679 -23.24072266 145.09619141 C-25.20870839 150.45129173 -27.17938423 155.8053959 -29.15161133 161.15893555 C-29.92246612 163.25296947 -30.69233105 165.34736806 -31.46118164 167.44213867 C-32.53017718 170.35429432 -33.60257941 173.2651736 -34.67578125 176.17578125 C-34.99799149 177.05607498 -35.32020172 177.93636871 -35.6521759 178.84333801 C-35.94782944 179.64309555 -36.24348297 180.44285309 -36.5480957 181.2668457 C-36.8056514 181.96719437 -37.06320709 182.66754303 -37.3285675 183.38911438 C-38 185 -38 185 -39 186 C-41.7998972 186.09519368 -44.57506174 186.12553944 -47.37524414 186.11352539 C-48.69219521 186.11374443 -48.69219521 186.11374443 -50.03575134 186.1139679 C-52.95224435 186.11326844 -55.86867433 186.10547455 -58.78515625 186.09765625 C-60.80154892 186.09579218 -62.81794204 186.09436823 -64.83433533 186.09336853 C-70.15265138 186.08954244 -75.4709403 186.07971139 -80.78924561 186.06866455 C-86.21170688 186.05845238 -91.63417252 186.05387133 -97.05664062 186.04882812 C-107.70443903 186.0380892 -118.35221726 186.02101169 -129 186 C-128.33920712 181.79257505 -127.4279427 178.02132771 -125.96875 174.015625 C-125.37126953 172.36626953 -125.37126953 172.36626953 -124.76171875 170.68359375 C-124.34535156 169.55050781 -123.92898437 168.41742188 -123.5 167.25 C-122.87544922 165.52716797 -122.87544922 165.52716797 -122.23828125 163.76953125 C-119.17106331 155.34212662 -119.17106331 155.34212662 -118 153 C-119.22074219 153.04640625 -120.44148438 153.0928125 -121.69921875 153.140625 C-137.08353518 153.55438412 -149.13988567 151.68970831 -161 141 C-169.67379984 131.67566517 -173.54630915 120.53499147 -173.24609375 107.890625 C-172.18686824 95.44892852 -167.26078882 85.33566181 -158.2109375 76.75390625 C-146.75081169 67.66274638 -133.42745205 66.8228476 -119.3984375 66.90234375 C-118.435961 66.9037587 -117.4734845 66.90517365 -116.48184204 66.90663147 C-113.44619468 66.91217193 -110.41062459 66.92471284 -107.375 66.9375 C-105.30078232 66.94252271 -103.22656348 66.94708426 -101.15234375 66.95117188 C-96.10153331 66.96212176 -91.0507797 66.97934436 -86 67 C-85.81697327 66.37256897 -85.63394653 65.74513794 -85.44537354 65.09869385 C-83.82729365 59.61860895 -82.08490449 54.22032935 -80.109375 48.859375 C-79.70782196 47.765112 -79.70782196 47.765112 -79.29815674 46.64874268 C-78.73511934 45.11888741 -78.17038746 43.58965476 -77.60400391 42.06103516 C-76.7579134 39.77141459 -75.92374299 37.47767761 -75.08984375 35.18359375 C-68.47092822 17.16800344 -62.31110625 1.86724662 -44.171875 -6.6875 C-29.38597315 -12.80580421 -12.63906638 -8.99441149 0 0 Z " fill="#88D2DE" transform="translate(244,66)"/>
<path d="M0 0 C44.55 0.495 44.55 0.495 90 1 C91.12434595 4.37303786 90.91902706 4.93285335 89.73999023 8.12573242 C89.43894882 8.95477585 89.13790741 9.78381927 88.82774353 10.63798523 C88.4914241 11.53475479 88.15510468 12.43152435 87.80859375 13.35546875 C87.46627213 14.28990311 87.1239505 15.22433746 86.77125549 16.18708801 C85.66860485 19.19047292 84.55320311 22.18894258 83.4375 25.1875 C82.71205848 27.15789695 81.98744001 29.12859714 81.26367188 31.09960938 C79.51293769 35.8602321 77.74830901 40.61554241 75.9777832 45.36883545 C75.0578462 47.84433884 74.14496599 50.32231596 73.234375 52.80126953 C72.7071525 54.22823491 72.17981693 55.65515852 71.65234375 57.08203125 C70.98126587 58.90504761 70.98126587 58.90504761 70.29663086 60.76489258 C65.86771154 71.81509215 58.8566577 81.00546586 47.81640625 85.9609375 C34.78965196 90.76692452 21.28254062 91.25719751 8.40625 85.44140625 C-2.76284654 78.75082731 -9.41764941 69.32369638 -12.875 56.9375 C-17.16511595 36.75327976 -6.81725175 18.93681041 0 0 Z " fill="#DF1958" transform="translate(242,354)"/>
<path d="M0 0 C29.37 0 58.74 0 89 0 C90.0002719 4.00108759 90.07144219 4.64964609 88.77172852 8.23925781 C88.32984947 9.48270966 88.32984947 9.48270966 87.87904358 10.75128174 C87.54899826 11.64289001 87.21895294 12.53449829 86.87890625 13.453125 C86.54132797 14.38614441 86.20374969 15.31916382 85.85594177 16.28045654 C85.13556757 18.2627939 84.40974951 20.24316007 83.67895508 22.22167969 C82.58389304 25.19197262 81.51038027 28.16937148 80.43945312 31.1484375 C77.23585318 39.9666673 73.9137071 48.68080201 69.77734375 57.109375 C69.47083389 57.74304993 69.16432404 58.37672485 68.848526 59.02960205 C66.78652855 63.0616856 64.3263139 65.95050777 61 69 C60.43796875 69.54785156 59.8759375 70.09570312 59.296875 70.66015625 C51.09860035 78.09243049 40.26339278 81.58998156 29.1953125 81.25390625 C15.80304359 79.70497835 6.2685697 74.66807701 -3 65 C-10.14370601 55.93429689 -12.59017876 45.43027721 -12 34 C-10.01785186 22.89997043 -6.16373176 12.43708762 -2 2 C-1.34 2 -0.68 2 0 2 C0 1.34 0 0.68 0 0 Z " fill="#62C09F" transform="translate(77,355)"/>
<path d="M0 0 C8.85550048 6.30189073 14.95390602 15.69725212 17.0625 26.484375 C18.3693729 37.62295323 16.33466693 46.25056788 12.31640625 56.6484375 C10.66640625 60.9384375 9.01640625 65.2284375 7.31640625 69.6484375 C-22.38359375 69.6484375 -52.08359375 69.6484375 -82.68359375 69.6484375 C-83.78339037 66.34904765 -83.6680982 65.90319567 -82.49951172 62.82641602 C-82.21526337 62.06454483 -81.93101501 61.30267365 -81.63815308 60.51771545 C-81.32057037 59.69589279 -81.00298767 58.87407013 -80.67578125 58.02734375 C-80.353284 57.17220688 -80.03078674 56.31707001 -79.69851685 55.4360199 C-78.66052853 52.69095481 -77.60951291 49.95107448 -76.55859375 47.2109375 C-75.87289102 45.39939376 -75.18798617 43.5875478 -74.50390625 41.77539062 C-59.90166988 3.2152839 -59.90166988 3.2152839 -43.93359375 -4.2265625 C-29.42958465 -10.48400642 -13.13312833 -8.42657686 0 0 Z " fill="#62C09F" transform="translate(241.68359375,64.3515625)"/>
<path d="M0 0 C9.51439272 8.37015768 14.41324045 18.45793366 16.1796875 30.88671875 C16.85130326 42.11229645 13.44067106 50.50503648 9.37109375 61.0859375 C-20.32890625 61.0859375 -50.02890625 61.0859375 -80.62890625 61.0859375 C-82.06775395 56.76939441 -80.31191 53.64077833 -78.8046875 49.54296875 C-78.50201462 48.70054123 -78.19934174 47.85811371 -77.88749695 46.99015808 C-77.24357142 45.20401745 -76.59515352 43.41949102 -75.94262695 41.63647461 C-74.95295709 38.93002556 -73.97826028 36.21855411 -73.00585938 33.50585938 C-72.37719108 31.76790733 -71.74766037 30.03026696 -71.1171875 28.29296875 C-70.82846268 27.4905928 -70.53973785 26.68821686 -70.24226379 25.86152649 C-65.05537916 11.75000949 -57.39059783 0.78266841 -43.5078125 -5.94140625 C-29.10248548 -11.35900757 -12.30792293 -8.96119203 0 0 Z " fill="#DF1958" transform="translate(403.62890625,72.9140625)"/>
<path d="M0 0 C0.82502518 0.00719055 1.65005035 0.0143811 2.50007629 0.02178955 C3.36843613 0.0214975 4.23679596 0.02120544 5.13146973 0.02090454 C8.01013582 0.02230116 10.8885451 0.03787791 13.76716614 0.05352783 C15.75970824 0.05725678 17.75225217 0.06010431 19.74479675 0.06210327 C24.99573303 0.06974901 30.24655912 0.08940556 35.49745178 0.11151123 C40.8529664 0.13194942 46.20849878 0.14110065 51.56404114 0.15118408 C62.07711045 0.17265058 72.59009789 0.20679784 83.10310364 0.24884033 C84.35932547 4.38988226 83.53701395 6.58899594 82.01325989 10.65899658 C81.33166809 12.51427979 81.33166809 12.51427979 80.63630676 14.40704346 C80.14676081 15.70873486 79.65651866 17.01016464 79.16560364 18.31134033 C78.21268609 20.86247561 77.26809245 23.4164025 76.32575989 25.97149658 C75.6877948 27.66931274 75.6877948 27.66931274 75.03694153 29.40142822 C73.94728911 32.22450343 73.94728911 32.22450343 74.10310364 35.24884033 C43.41310364 35.24884033 12.72310364 35.24884033 -18.89689636 35.24884033 C-16.67473568 27.84163806 -14.35978757 20.54857967 -11.83439636 13.24884033 C-11.48312683 12.21372314 -11.1318573 11.17860596 -10.76994324 10.11212158 C-10.42898621 9.12598877 -10.08802917 8.13985596 -9.73674011 7.12384033 C-9.27835754 5.78966064 -9.27835754 5.78966064 -8.81071472 4.42852783 C-6.88756612 -0.15866711 -4.63641589 0.01695966 0 0 Z " fill="#DF1958" transform="translate(290.8968963623047,236.75115966796875)"/>
<path d="M0 0 C0.85875229 -0.00043808 1.71750458 -0.00087616 2.60227966 -0.00132751 C5.4431729 0.00076394 8.28347733 0.02411174 11.12426758 0.04760742 C13.09295835 0.05320211 15.06165329 0.05747281 17.03034973 0.06047058 C22.21393347 0.07192937 27.39726534 0.10140551 32.58074951 0.13458252 C37.86930941 0.16526109 43.15790998 0.17897119 48.4465332 0.1940918 C58.82489912 0.22627416 69.20307804 0.27748306 79.58129883 0.34057617 C80.936266 4.40547769 79.79358482 6.17031766 78.30786133 10.16088867 C77.94306168 11.14978592 77.94306168 11.14978592 77.57089233 12.15866089 C77.05555873 13.55049239 76.535801 14.94069266 76.01196289 16.3293457 C75.20794394 18.46121414 74.41691333 20.59754469 73.62817383 22.73510742 C69.74985645 33.17201855 69.74985645 33.17201855 68.58129883 34.34057617 C65.78140163 34.43576985 63.00623709 34.46611561 60.20605469 34.45410156 C58.88910362 34.4543206 58.88910362 34.4543206 57.54554749 34.45454407 C54.62905448 34.45384462 51.7126245 34.44605072 48.79614258 34.43823242 C46.77974991 34.43636836 44.76335679 34.4349444 42.7469635 34.4339447 C37.42864745 34.43011861 32.11035852 34.42028756 26.79205322 34.40924072 C21.36959195 34.39902855 15.94712631 34.3944475 10.5246582 34.3894043 C-0.1231402 34.37866537 -10.77091843 34.36158787 -21.41870117 34.34057617 C-20.38436288 27.78179709 -18.29356363 21.88647676 -16.04370117 15.65307617 C-15.6440918 14.51290039 -15.24448242 13.37272461 -14.83276367 12.19799805 C-14.44088867 11.10680664 -14.04901367 10.01561523 -13.64526367 8.89135742 C-13.29028809 7.89789307 -12.9353125 6.90442871 -12.56958008 5.88085938 C-9.78994697 -0.25449966 -6.33346391 -0.08411945 0 0 Z " fill="#63C09F" transform="translate(136.418701171875,217.659423828125)"/>
<path d="M0 0 C0.82502518 0.00719055 1.65005035 0.0143811 2.50007629 0.02178955 C3.36843613 0.0214975 4.23679596 0.02120544 5.13146973 0.02090454 C8.01013582 0.02230116 10.8885451 0.03787791 13.76716614 0.05352783 C15.75970824 0.05725678 17.75225217 0.06010431 19.74479675 0.06210327 C24.99573303 0.06974901 30.24655912 0.08940556 35.49745178 0.11151123 C40.8529664 0.13194942 46.20849878 0.14110065 51.56404114 0.15118408 C62.07711045 0.17265058 72.59009789 0.20679784 83.10310364 0.24884033 C83.59810364 2.22884033 83.59810364 2.22884033 84.10310364 4.24884033 C83.44310364 4.57884033 82.78310364 4.90884033 82.10310364 5.24884033 C82.10310364 4.25884033 82.10310364 3.26884033 82.10310364 2.24884033 C53.06310364 2.24884033 24.02310364 2.24884033 -5.89689636 2.24884033 C-6.88689636 5.54884033 -7.87689636 8.84884033 -8.89689636 12.24884033 C-9.47788465 14.01438777 -10.07050869 15.77625847 -10.68595886 17.53009033 C-10.98759949 18.39118408 -11.28924011 19.25227783 -11.60002136 20.13946533 C-11.90424011 21.00055908 -12.20845886 21.86165283 -12.52189636 22.74884033 C-12.83384949 23.64087158 -13.14580261 24.53290283 -13.46720886 25.45196533 C-15.76057621 31.97620003 -15.76057621 31.97620003 -16.89689636 34.24884033 C28.14810364 33.75384033 28.14810364 33.75384033 74.10310364 33.24884033 C74.10310364 33.90884033 74.10310364 34.56884033 74.10310364 35.24884033 C43.41310364 35.24884033 12.72310364 35.24884033 -18.89689636 35.24884033 C-16.67473568 27.84163806 -14.35978757 20.54857967 -11.83439636 13.24884033 C-11.48312683 12.21372314 -11.1318573 11.17860596 -10.76994324 10.11212158 C-10.42898621 9.12598877 -10.08802917 8.13985596 -9.73674011 7.12384033 C-9.27835754 5.78966064 -9.27835754 5.78966064 -8.81071472 4.42852783 C-6.88756612 -0.15866711 -4.63641589 0.01695966 0 0 Z " fill="#DF444F" transform="translate(290.8968963623047,236.75115966796875)"/>
<path d="M0 0 C29.37 0 58.74 0 89 0 C89.495 1.98 89.495 1.98 90 4 C89.34 4.33 88.68 4.66 88 5 C88 4.01 88 3.02 88 2 C58.96 1.67 29.92 1.34 0 1 C0 0.67 0 0.34 0 0 Z " fill="#D63363" transform="translate(285,237)"/>
<path d="M0 0 C0.66 0 1.32 0 2 0 C0.19858476 7.30818052 -2.13910578 14.25374547 -4.9140625 21.25 C-5.66291983 23.1463869 -6.35524651 25.06573954 -7 27 C-7.66 27 -8.32 27 -9 27 C-9.33 27.99 -9.66 28.98 -10 30 C-11 28 -11 28 -10.21142578 25.31030273 C-9.7936084 24.19598877 -9.37579102 23.0816748 -8.9453125 21.93359375 C-8.49542969 20.72638672 -8.04554688 19.51917969 -7.58203125 18.27539062 C-7.34307129 17.64608643 -7.10411133 17.01678223 -6.85791016 16.3684082 C-6.12765708 14.44450028 -5.40858912 12.51670398 -4.69140625 10.58789062 C-1.1504892 1.1504892 -1.1504892 1.1504892 0 0 Z " fill="#EAA825" transform="translate(253,325)"/>
<path d="M0 0 C0.66 0.33 1.32 0.66 2 1 C1.76289307 1.64437012 1.52578613 2.28874023 1.28149414 2.95263672 C0.19644059 5.92250886 -0.87058031 8.89856762 -1.9375 11.875 C-2.31068359 12.88820313 -2.68386719 13.90140625 -3.06835938 14.9453125 C-5.12598057 20.72889641 -6.46590565 25.88812238 -6.63110352 32.04345703 C-6.75283936 32.68911621 -6.8745752 33.33477539 -7 34 C-7.99 34.66 -8.98 35.32 -10 36 C-9.64226915 27.99577222 -7.63936852 21.030506 -5 13.5 C-4.44699219 11.87578125 -4.44699219 11.87578125 -3.8828125 10.21875 C-1.21552579 2.43105159 -1.21552579 2.43105159 0 0 Z " fill="#6DBE93" transform="translate(75,357)"/>
<path d="M0 0 C3.86648272 1.04097612 7.49461443 2.03698408 11 4 C8.01120724 4.85394079 6.28236729 5.07700926 3.25 4.25 C1 3 1 3 0 0 Z " fill="#DE1051" transform="translate(252,437)"/>
<path d="M0 0 C0.66 0 1.32 0 2 0 C1.67 2.31 1.34 4.62 1 7 C0.34 7 -0.32 7 -1 7 C-1.33 7.99 -1.66 8.98 -2 10 C-3 8 -3 8 -2.44140625 6.0546875 C-2.15136719 5.33539063 -1.86132812 4.61609375 -1.5625 3.875 C-1.27503906 3.15054687 -0.98757812 2.42609375 -0.69140625 1.6796875 C-0.46324219 1.12539063 -0.23507813 0.57109375 0 0 Z " fill="#E99E2E" transform="translate(245,345)"/>
<path d="M0 0 C3.96 0 7.92 0 12 0 C8 3 8 3 5.859375 2.85546875 C3.90625 2.23697917 1.953125 1.61848958 0 1 C0 0.67 0 0.34 0 0 Z " fill="#DD0C4F" transform="translate(265,441)"/>
</svg>
